<svg viewBox="0 0 50 50" xmlns="http://www.w3.org/2000/svg"><path d="m24.982422 3a1.0001 1.0001 0 0 0 -.447266.1132812l-20.9999998 10.9999998a1.0001 1.0001 0 0 0 -.5351562.886719v3a1.0001 1.0001 0 0 0 1 1h2.9921875v18h-1.9921875c-.552 0-1 .447-1 1v2h-1c-.552 0-1 .447-1 1v3c0 .553.448 1 1 1h23v-2h-22v-1h1c.552 0 1-.447 1-1v-2h1.9609375c.0137218.000553.0252041.007812.0390625.007812h4c.013858 0 .025341-.007259.039062-.007812h5.921876c.013721.000553.025204.007812.039062.007812h4c.013858 0 .025341-.007259.039062-.007812h4.869141c.083279-.15469.175692-.303769.269531-.451172.00081.001204.00114.002705.001954.003906.17493-.276526.37008-.537046.576171-.789062.225732-.269133.466763-.526589.726563-.763672h-.017578c.173547-.160609.3536-.313965.542968-.457031v-17.535157h1.984376v7.417969c.512-.858 1.198624-1.597969 2.015624-2.167969v-5.257812h3.984376v4h.007812c.698 0 1.370813.105875 2.007812.296875v-4.289063h1.984376v5.25c.817.570001 1.502624 1.309969 2.015624 2.167969v-7.425781h2.992188a1.0001 1.0001 0 0 0 1-1v-3a1.0001 1.0001 0 0 0 -.535156-.886719l-21-10.9999998a1.0001 1.0001 0 0 0 -.482422-.1132812zm.017578 2.1308594 20 10.4746096v1.394531h-2.960938c-.013721-.000553-.025204-.007812-.039062-.007812h-4c-.013858 0-.025341.007259-.039062.007812h-5.921876c-.013721-.000553-.025204-.007812-.039062-.007812h-4c-.013858 0-.025341.007259-.039062.007812h-5.921876c-.013721-.000553-.025204-.007812-.039062-.007812h-4c-.013858 0-.025341.007259-.039062.007812h-5.921876c-.013721-.000553-.025204-.007812-.039062-.007812h-4c-.0138584 0-.0253407.007259-.0390625.007812h-2.9609375v-1.394531zm0 2.8691406c-1.25 0-2.314774.5047556-2.998047 1.2734375-.683272.7686815-1.001953 1.7543405-1.001953 2.7265625s.318681 1.957881 1.001953 2.726562c.683273.768683 1.748047 1.273438 2.998047 1.273438s2.314774-.504756 2.998047-1.273438c.683272-.76868 1.001953-1.75434 1.001953-2.726562s-.318681-1.957881-1.001953-2.7265625c-.683273-.7686819-1.748047-1.2734375-2.998047-1.2734375zm0 2c.749999 0 1.185226.245244 1.501953.601562.316727.35632.498047.87066.498047 1.398438s-.18132 1.042119-.498047 1.398438c-.316727.356317-.751954.601562-1.501953.601562s-1.185226-.245244-1.501953-.601562c-.316727-.35632-.498047-.87066-.498047-1.398438s.18132-1.042119.498047-1.398438c.316727-.356317.751954-.601562 1.501953-.601562zm-11.992188 9h3.984376v18h-3.984376zm10 0h3.984376v18h-3.984376zm-13.9999995.007812h1.9843755v17.984376h-1.9843755zm9.9999995 0h1.984376v17.984376h-1.984376zm17.992188 5.992188c-1.583333 0-2.898108.629756-3.748047 1.585938-.849939.956181-1.251953 2.19184-1.251953 3.414062s.402014 2.457882 1.251953 3.414062c.849939.956182 2.164714 1.585938 3.748047 1.585938s2.898108-.629756 3.748047-1.585938c.849939-.956181 1.251953-2.19184 1.251953-3.414062s-.402014-2.457882-1.251953-3.414062c-.849939-.956182-2.164714-1.585938-3.748047-1.585938zm0 2c1.083333 0 1.768559.370244 2.251953.914062.483394.543819.748047 1.30816.748047 2.085938s-.264653 1.542118-.748047 2.085938c-.483394.543818-1.16862.914062-2.251953.914062s-1.768559-.370244-2.251953-.914062c-.483394-.543819-.748047-1.30816-.748047-2.085938s.264653-1.542118.748047-2.085938c.483394-.543818 1.16862-.914062 2.251953-.914062zm-3.441406 10c-3.057591 0-5.558594 2.500218-5.558594 5.558594v4.441406a1.0001 1.0001 0 1 0 2 0v-4.441406c0-1.977624 1.582184-3.558594 3.558594-3.558594h6.882812c1.977624 0 3.558594 1.58097 3.558594 3.558594v4.441406a1.0001 1.0001 0 1 0 2 0v-4.441406c0-3.058376-2.500218-5.558594-5.558594-5.558594z"/></svg>