<svg enable-background="new 0 0 20 20" height="20" viewBox="0 0 20 20" width="20" xmlns="http://www.w3.org/2000/svg"><path d="m0 0h20v20h-20z" fill="none"/><path d="m11 12.25h3v1h-3z"/><path d="m11 10.75h3v1h-3z"/><path d="m6 7.27h3v1h-3z"/><path d="m15 4h-10c-.55 0-1 .45-1 1v10c0 .55.45 1 1 1h10c.55 0 1-.45 1-1v-10c0-.55-.45-1-1-1zm0 11h-10v-10h10z"/><path d="m7.5 14h1v-1.5h1.5v-1h-1.5v-1.5h-1v1.5h-1.5v1h1.5z"/><path d="m11.44 9.54 1.06-1.07 1.06 1.07.71-.71-1.06-1.06 1.06-1.06-.71-.71-1.06 1.06-1.06-1.06-.71.71 1.06 1.06-1.06 1.06z"/></svg>