<svg viewBox="0 0 48 48" xmlns="http://www.w3.org/2000/svg"><path d="m45 3h-10.76a8 8 0 0 0 -12.48 0h-18.76a3 3 0 0 0 -3 3v29a3 3 0 0 0 3 3h17.09l-.89 4h-2.2a2 2 0 0 0 -2 2v3a1 1 0 0 0 1 1h16a1 1 0 0 0 1-1v-3a2 2 0 0 0 -2-2h-2.2l-.89-4h17.09a3 3 0 0 0 3-3v-29a3 3 0 0 0 -3-3zm-17-1a6 6 0 1 1 -6 6 6 6 0 0 1 6-6zm-26 4a1 1 0 0 1 1-1h17.59a8 8 0 1 0 14.82 0h9.59a1 1 0 0 1 1 1v25h-44zm29 40h-14v-2h14zm-4.25-4h-5.5l.89-4h3.72zm19.25-7a1 1 0 0 1 -1 1h-42a1 1 0 0 1 -1-1v-2h44z"/><path d="m9 17h-1v-3a1 1 0 0 0 -2 0v3h-1a1 1 0 0 0 -1 1v6a1 1 0 0 0 1 1h1v3a1 1 0 0 0 2 0v-3h1a1 1 0 0 0 1-1v-6a1 1 0 0 0 -1-1zm-1 6h-2v-4h2z"/><path d="m17 13h-1v-3a1 1 0 0 0 -2 0v3h-1a1 1 0 0 0 -1 1v6a1 1 0 0 0 1 1h1v3a1 1 0 0 0 2 0v-3h1a1 1 0 0 0 1-1v-6a1 1 0 0 0 -1-1zm-1 6h-2v-4h2z"/><path d="m43 27h-22a1 1 0 0 0 0 2h22a1 1 0 0 0 0-2z"/><path d="m26 11h1v1a1 1 0 0 0 2 0v-1c.94 0 1.62.12 1.92-.62s-.23-1.11-2.51-3.38h1.59a1 1 0 0 0 0-2h-1v-1a1 1 0 0 0 -2 0v1c-.94 0-1.62-.12-1.92.62s.23 1.11 2.51 3.38h-1.59a1 1 0 0 0 0 2z"/><path d="m21 26c.59 0 .48-.06 5-4.59l3.29 3.3a1 1 0 0 0 1.42 0c11.85-11.86 10.29-10.55 10.29-9.71a1 1 0 0 0 2 0c0-4.57.61-4-4-4a1 1 0 0 0 0 2h.59l-9.59 9.59-3.29-3.3a1 1 0 0 0 -1.42 0l-5 5a1 1 0 0 0 .71 1.71z"/></svg>